<?xml version="1.0" encoding="utf-8" ?><svg xmlns="http://www.w3.org/2000/svg" xmlns:xlink="http://www.w3.org/1999/xlink" width="1024" height="1024" viewBox="0 0 1024 1024"><path fill="#F6D4BA" transform="scale(2 2)" d="M230.002 91.755C239.569 90.7296 247.692 93.3898 255.987 97.7311C277.446 87.3083 296.22 90.5529 313.792 106.366C354.895 86.9507 397.077 121.937 388.356 164.753C387.543 168.743 386.175 172.275 385.067 176.144C403.295 186.813 416 202.042 423.849 221.82C431.816 241.892 429.147 263.074 407.36 271.641C405.36 278.739 403.8 287.08 401.99 294.395L378.021 396.255C373.752 414.354 372.475 420.374 352.249 420.355L288.375 420.343L166.113 420.348C158.993 420.348 141.182 422.457 138.518 412.793C133.639 395.092 129.882 376.97 125.651 359.096L107.298 283.337C106.479 279.964 105.465 275.231 104.391 272.009L104.267 271.641C89.5345 265.888 81.1386 251.492 83.7126 235.857C86.816 220.805 99.7707 198.633 110.509 188.42C116.265 182.947 120.778 180.448 127.152 176.144C126.385 174.027 125.694 171.998 125.039 169.841C111.718 125.928 158.724 84.7037 197.907 106.366C206.274 97.5456 217.799 92.0842 230.002 91.755ZM319.352 128.589C314.298 136.813 335.35 139.755 339.804 139.188C342.955 136.05 342.476 134.434 338.373 133.043C333.915 134.841 323.596 130.572 319.352 128.589ZM182.789 130.714C183.717 128.764 184.047 128.161 184.742 126.06C187.044 121.95 188.647 117.439 191.701 113.863L193.26 111.296C153.828 95.3872 116.661 135.553 133.969 173.786C167.813 164.288 189.123 178.468 207.492 205.556C222.756 176.703 249.721 159.686 283.324 167.875C282.96 144.144 287.969 125.358 307.86 110.397C306.575 109.226 305.798 108.724 304.357 107.757C301.322 109.569 297.327 111.847 294.497 113.863C292.22 118.711 282.854 120.138 277.696 121.991C278.093 123.481 279.795 124.982 280.904 126.06C284.23 125.711 284.742 125.486 287.767 124.088C278.724 139.688 278.238 147.615 278.413 164.801C266.183 160.961 257.352 161.078 244.86 163.989C234.535 135.265 251.247 106.987 281.106 101.96C284.15 101.448 291.16 102.37 293.018 101.757C270.443 92.3467 249.492 105.737 240.532 126.976C235 140.091 237.387 152.334 243.48 164.801C240.334 165.764 239.924 165.888 237.29 167.875C229.674 151.323 229.108 142.845 233.268 126.06C236.005 119.818 239.918 112.559 244.86 107.757C245.925 106.292 246.643 105.396 247.848 104.044L249.795 102.49C248.664 102.031 247.162 101.281 246.026 100.753C242.603 99.9936 238.979 99.0511 235.52 98.699C198.77 94.9579 172.455 140.807 200.694 173.786C201.138 174.222 203.04 175.845 203.643 176.27C207.708 178.825 206.228 191.76 191.416 173.061C180.344 159.083 180.644 146.894 182.789 130.714ZM144.1 407.463C144.444 409.089 144.667 409.747 145.228 411.287C148.168 413.889 150.669 413.683 154.394 413.691L357.862 413.673C365.768 413.61 369.37 406.401 370.417 399.599C371.436 392.976 389.758 317.623 389.262 316.399C387.235 316.182 386.385 315.656 385.067 314.129L384.886 314.604C383.659 317.92 382.353 323.436 381.567 326.98C376.342 350.524 370.643 373.95 365.31 397.464C364.164 402.519 363.325 408.195 356.772 408.227L151.744 408.149C149.661 408.165 147.803 408.529 145.814 407.849L145.417 407.715C145.089 407.604 144.797 407.495 144.476 407.37L144.1 407.463ZM375.667 170.779C374.784 170.597 373.703 170.415 372.873 170.109C366.314 166.133 356.767 167.089 350.005 170.109C351.487 170.226 351.903 169.562 353.382 170C361.27 172.331 370.311 169.802 374.694 172.109C374.199 172.755 372.576 172.497 371.661 172.787C374.463 173.019 375.758 173.117 378.484 173.786C383.374 158.331 384.493 142.581 374.797 128.589C374.692 129.764 377.638 138.443 378.053 141.079C379.8 152.168 377.265 160.183 375.667 170.779ZM280.904 308.67C282.391 313.925 283.308 331.472 283.324 337.382C286.55 327.009 283.919 315.238 288.969 304.836C295.475 291.435 310.952 287.211 323.895 293.649C323.146 291.544 318.674 289.015 316.754 288.07C300.386 280.015 286.073 293.447 280.904 308.67ZM336.12 308.67C338.637 319.136 337.732 330.188 338.373 340.848C340.282 326.373 338.853 307.605 349.768 297.529C359.966 288.116 375.537 288.149 385.067 298.156C383.66 286.314 348.002 275.562 337.707 304.844C337.352 305.857 336.593 307.746 336.12 308.67ZM331.585 198.307C330.2 197.817 329.714 198.415 328.07 197.675C327.705 196.578 330.879 188.197 331.58 186.664L331.352 186.519L330.477 187.032L330.272 187.317C322.05 198.885 329.212 192.933 319.352 192.363C322.953 197.929 325.022 199.232 327.973 205.556C329.236 202.696 330.12 201.039 331.585 198.307ZM387.263 300.807C388.595 302.789 390.833 307.129 391.918 309.338C392.105 300.858 397.553 281.464 399.898 272.827C398.069 272.79 396.143 272.823 394.305 272.827C393.93 275.74 388.346 298.501 387.263 300.807ZM171.508 311.572C173.291 317.381 173.551 330.27 174.95 337.382L175.555 325.075C175.846 318.758 175.61 312.463 178.179 306.575C184.78 291.445 198.901 287.525 213.417 293.649C212.352 291.54 205.961 287.898 203.483 287.077C186.054 281.298 174.094 295.667 171.508 311.572ZM224.915 308.67C227.509 314.989 227.132 331.306 228.623 339.127C231.233 324.07 226.614 301.747 244.443 293.476C254.174 288.961 260.233 290.579 269.586 293.649C268.808 292.671 267.79 292.172 266.82 291.418C252.455 280.255 235.565 287.179 227.777 302.889C226.842 304.776 226.099 306.871 224.915 308.67Z"/><path fill="#F6D4BA" transform="scale(2 2)" d="M391.918 266.121C373.332 266.442 353.692 266.116 335.014 266.116L125.28 266.129C121.336 266.131 117.332 266.239 113.405 266.1C96.2977 265.492 87.9624 250.125 90.8508 234.774C93.7886 225.857 98.4334 217.193 102.826 208.912C120.715 176.895 160.405 165.657 188.495 192.386C193.665 197.306 197.593 203.505 201.783 209.232C210.03 220.508 209.813 214.673 215.502 204.948C237.161 167.921 281.897 160.279 311.735 194.225C314.402 197.19 327.624 219.752 331.16 213.683C337.566 202.689 341.983 190.35 353.306 183.14C374.655 169.548 398.151 191.503 409.25 208.475C412.327 213.248 414.177 218.195 416.959 222.591L417.2 222.968C417.981 226.121 419.086 229.126 419.956 232.29C423.495 245.163 418.587 261.974 404.144 265.352C400.903 266.109 395.414 266.05 391.918 266.121Z"/><path fill="#FEFADC" transform="scale(2 2)" d="M417.2 222.968C417.981 226.121 419.086 229.126 419.956 232.29C423.495 245.163 418.587 261.974 404.144 265.352C400.903 266.109 395.414 266.05 391.918 266.121C393.404 265.091 396.758 264.457 398.498 263.753C411.05 258.678 417.44 246.15 417.558 233.037C417.586 230.033 416.634 225.745 417.2 222.968Z"/><path fill="#FEFADC" transform="scale(2 2)" d="M144.1 407.463L131.517 353.957C127.868 338.665 121.769 323.335 129.847 308.049C137.674 293.193 158.26 294.987 164.01 310.546C166.123 316.261 166.476 325.765 167.126 332.024L170.998 372.787C171.241 375.516 170.811 385.887 174.011 386.735C180.202 388.377 179.446 381.045 179.618 377.323L182.288 328.375C182.573 323.378 182.404 316.408 183.672 311.789C189.05 292.189 216.465 293.821 219.39 313.989C220.459 321.358 220.747 328.761 221.354 336.074L224.563 373.493C224.741 375.839 225.12 385.135 226.063 385.892C233.121 391.563 232.874 379.317 232.978 377.832L236.089 334.178C236.583 327.295 236.872 320.427 237.887 313.56C240.637 295.103 266.226 292.052 273.458 309.113C276.17 315.509 275.998 326.744 276.514 333.928L279.141 375.435C279.242 376.929 279.467 384.927 280.311 385.75C288.874 394.109 288.318 367.631 288.63 364.015L291.638 330.546C292.085 325.232 292.185 317.594 293.419 312.514C298.343 292.593 326.97 293.048 329.881 313.918C330.71 319.861 330.862 326.393 331.295 332.389L333.761 368.585C334.044 373.439 334.206 378.756 334.82 383.515C335.335 387.51 341.407 389.119 342.037 382.923C344.18 361.874 344.557 333.664 348.589 313.486C353.219 290.319 384.549 294.934 385.067 314.129L384.886 314.604C383.659 317.92 382.353 323.436 381.567 326.98C376.342 350.524 370.643 373.95 365.31 397.464C364.164 402.519 363.325 408.195 356.772 408.227L151.744 408.149C149.661 408.165 147.803 408.529 145.814 407.849L145.417 407.715C145.089 407.604 144.797 407.495 144.476 407.37L144.1 407.463Z"/><path fill="#FEFADC" transform="scale(2 2)" d="M111.595 272.827L394.305 272.827C393.93 275.74 388.346 298.501 387.263 300.807L385.067 298.156C383.66 286.314 348.002 275.562 337.707 304.844C337.352 305.857 336.593 307.746 336.12 308.67C333.21 301.728 330.426 297.718 323.895 293.649C323.146 291.544 318.674 289.015 316.754 288.07C300.386 280.015 286.073 293.447 280.904 308.67C280.147 307.756 277.964 302.41 276.205 300.318C274.01 297.71 271.25 296.106 269.586 293.649C268.808 292.671 267.79 292.172 266.82 291.418C252.455 280.255 235.565 287.179 227.777 302.889C226.842 304.776 226.099 306.871 224.915 308.67C223.101 301.72 219.113 297.775 213.417 293.649C212.352 291.54 205.961 287.898 203.483 287.077C186.054 281.298 174.094 295.667 171.508 311.572C167.553 303.319 168.436 302.246 160.695 294.932C143.212 286.142 126.698 292.349 121.294 311.572L118.983 302.988C116.42 293.504 113.733 282.396 111.595 272.827Z"/><path fill="#FEFADC" transform="scale(2 2)" d="M118.983 302.988C122.072 297.654 123.116 293.772 128.979 289.926C138.586 283.626 154.314 285.127 160.695 294.932C143.212 286.142 126.698 292.349 121.294 311.572L118.983 302.988Z"/><path fill="#FEFADC" transform="scale(2 2)" d="M290.473 170.779C290.359 156.031 290.576 145.079 297.779 131.395C308.146 111.699 335.86 100.544 356.056 112.053C358.684 112.955 361.709 114.791 363.766 116.651C367.062 118.99 369.119 120.893 371.661 124.088C372.69 125.329 374.093 127.132 374.797 128.589C374.692 129.764 377.638 138.443 378.053 141.079C379.8 152.168 377.265 160.183 375.667 170.779C374.784 170.597 373.703 170.415 372.873 170.109C366.314 166.133 356.767 167.089 350.005 170.109C351.487 170.226 351.903 169.562 353.382 170C361.27 172.331 370.311 169.802 374.694 172.109C374.199 172.755 372.576 172.497 371.661 172.787C357.44 170.144 349.082 177.244 339.804 186.226C339.004 187.437 332.119 197.769 331.585 198.307C330.2 197.817 329.714 198.415 328.07 197.675C327.705 196.578 330.879 188.197 331.58 186.664L331.352 186.519L330.477 187.032L330.272 187.317C322.05 198.885 329.212 192.933 319.352 192.363C309.578 184.202 309.164 180.625 295.5 172.787C294.004 172.115 292.029 171.396 290.473 170.779ZM339.804 139.188C342.955 136.05 342.476 134.434 338.373 133.043C333.915 134.841 323.596 130.572 319.352 128.589C314.298 136.813 335.35 139.755 339.804 139.188Z"/><path fill="#FEFADC" transform="scale(2 2)" d="M290.473 170.779C290.359 156.031 290.576 145.079 297.779 131.395C308.146 111.699 335.86 100.544 356.056 112.053C354.658 112.341 350.731 111.694 349.168 111.538C318.67 108.495 292.458 133.845 295.591 164.752C295.75 166.325 295.922 171.582 295.5 172.787C294.004 172.115 292.029 171.396 290.473 170.779Z"/><path fill="#FEFADC" transform="scale(2 2)" d="M350.005 170.109C351.487 170.226 351.903 169.562 353.382 170C361.27 172.331 370.311 169.802 374.694 172.109C374.199 172.755 372.576 172.497 371.661 172.787C357.44 170.144 349.082 177.244 339.804 186.226C339.004 187.437 332.119 197.769 331.585 198.307C330.2 197.817 329.714 198.415 328.07 197.675C327.705 196.578 330.879 188.197 331.58 186.664L331.352 186.519L330.477 187.032C331.382 185.423 333.272 182.968 334.409 181.37L332.4 179.797C332.369 178.572 332.388 177.368 332.4 176.144C333.111 175.966 333.716 175.75 334.409 175.519C335.485 174.752 336.204 174.394 337.361 173.786C338.617 173.997 338.731 173.98 339.804 174.606C342.935 173.172 346.769 171.175 350.005 170.109Z"/><path fill="#FEFADC" transform="scale(2 2)" d="M337.361 173.786C338.617 173.997 338.731 173.98 339.804 174.606L337.361 175.519C336.223 176.067 335.554 175.846 334.409 175.519C335.485 174.752 336.204 174.394 337.361 173.786Z"/><path fill="#F6D4BA" transform="scale(2 2)" d="M332.4 176.144C323.608 171.627 332.726 167.217 337.863 164.888C339.685 164.062 350.989 156.679 349.792 165.878C349.448 168.524 340.443 172.079 337.361 173.786C336.204 174.394 335.485 174.752 334.409 175.519C333.716 175.75 333.111 175.966 332.4 176.144Z"/><path fill="#FEFADC" transform="scale(2 2)" d="M371.661 124.088C372.69 125.329 374.093 127.132 374.797 128.589C374.692 129.764 377.638 138.443 378.053 141.079C379.8 152.168 377.265 160.183 375.667 170.779C374.784 170.597 373.703 170.415 372.873 170.109C374.237 158.269 377.496 148.737 374.488 136.353C373.822 133.609 370.51 125.683 370.35 124.088L371.661 124.088Z"/><path fill="#FEFADC" transform="scale(2 2)" d="M363.766 116.651C367.062 118.99 369.119 120.893 371.661 124.088L370.35 124.088C368.908 122.528 363.425 118.728 363.766 116.651Z"/><path fill="#F6D4BA" transform="scale(2 2)" d="M348.072 142.092C344.078 138.747 345.48 135.754 350.005 134.177C352.857 135.535 355.516 137.27 358.37 138.566C366.239 142.138 366.276 138.168 367.631 146.232C377.614 152.717 362.098 158.751 348.199 146.663C347.512 146.065 347.984 142.961 348.072 142.092Z"/><path fill="#FEFADC" transform="scale(2 2)" d="M348.072 142.092C352.264 143.964 364.104 151.452 367.631 146.232C377.614 152.717 362.098 158.751 348.199 146.663C347.512 146.065 347.984 142.961 348.072 142.092Z"/><path fill="#F6D4BA" transform="scale(2 2)" d="M306.313 160.58C303.27 161.064 300.152 160.783 300.562 156.777C300.764 154.804 314.532 148.032 317.122 146.874C320.966 145.157 323.736 147.851 322.626 151.767L325.572 155.109C322.72 160.565 314.394 162.692 308.647 165.999C307.529 165.224 307.18 165.047 306.313 163.989C305.886 162.74 306.109 161.848 306.313 160.58Z"/><path fill="#FEFADC" transform="scale(2 2)" d="M322.626 151.767L325.572 155.109C322.72 160.565 314.394 162.692 308.647 165.999C307.529 165.224 307.18 165.047 306.313 163.989C305.886 162.74 306.109 161.848 306.313 160.58C306.969 160.535 307.201 160.556 307.86 160.58C311.977 157.178 317.791 155.234 322.626 151.767Z"/><path fill="#F6D4BA" transform="scale(2 2)" d="M319.352 119.921C325.891 123.33 330.21 125.28 337.483 126.595C340.257 127.097 339.96 130.787 338.373 133.043C333.915 134.841 323.596 130.572 319.352 128.589C315.152 125.546 314.241 122.976 319.352 119.921Z"/><path fill="#FEFADC" transform="scale(2 2)" d="M246.026 100.753C247.162 101.281 248.664 102.031 249.795 102.49L247.848 104.044C246.643 105.396 245.925 106.292 244.86 107.757C239.918 112.559 236.005 119.818 233.268 126.06C229.108 142.845 229.674 151.323 237.29 167.875C216.131 172.457 207.761 195.948 204.943 197.481C196.597 194.608 184.904 154.329 136.261 168.653L136.183 168.268C130.575 139.654 151.828 112.195 181.091 111.741C184.742 111.684 188.535 111.659 191.701 113.863C188.647 117.439 187.044 121.95 184.742 126.06L184.578 125.908C183.403 124.842 182.142 123.999 180.486 124.088C179.343 125.399 163.97 133.734 161.834 134.177C162.451 136.182 162.168 138.125 163.695 139.65C165.953 140.037 179.319 132.265 182.789 130.714C180.644 146.894 180.344 159.083 191.416 173.061C206.228 191.76 207.708 178.825 203.643 176.27C203.04 175.845 201.138 174.222 200.694 173.786C200.532 172.268 198.309 169.223 197.586 167.689C188.99 149.451 192.853 127.702 208.62 114.722C209.444 112.737 209.873 112.117 211.802 111.296C220.182 104.737 231.07 100.774 241.788 102.49C243.28 102.356 245.142 102.068 246.026 100.753ZM206.146 155.109C207.176 156.278 207.976 157.46 209.206 158.405C215.834 158.926 234.798 145.581 222.085 146.232C220.467 148.458 210.15 152 206.146 155.109ZM149.376 152.664C150.792 162.269 157.2 155.902 163.053 153.073C167.423 150.962 167.067 146.945 162.054 146.022L161.834 146.232C160.435 148.545 152.324 151.404 149.376 152.664Z"/><path fill="#FEFADC" transform="scale(2 2)" d="M246.026 100.753C247.162 101.281 248.664 102.031 249.795 102.49L247.848 104.044C246.643 105.396 245.925 106.292 244.86 107.757C239.918 112.559 236.005 119.818 233.268 126.06C227.004 125.771 224.387 125.909 218.707 123.175C218.215 121.878 218.11 121.252 217.856 119.921C213.457 118.682 209.659 119.9 208.62 114.722C209.444 112.737 209.873 112.117 211.802 111.296C220.182 104.737 231.07 100.774 241.788 102.49C243.28 102.356 245.142 102.068 246.026 100.753Z"/><path fill="#FEFADC" transform="scale(2 2)" d="M230.585 116.651C233.002 112.323 239.817 107.502 244.86 107.757C239.918 112.559 236.005 119.818 233.268 126.06C227.004 125.771 224.387 125.909 218.707 123.175C218.215 121.878 218.11 121.252 217.856 119.921C223.568 120.586 229.192 123.488 230.585 116.651Z"/><path fill="#F6D4BA" transform="scale(2 2)" d="M211.802 111.296C216.099 111.421 228.742 112.233 230.585 116.651C229.192 123.488 223.568 120.586 217.856 119.921C213.457 118.682 209.659 119.9 208.62 114.722C209.444 112.737 209.873 112.117 211.802 111.296Z"/><path fill="#FEFADC" transform="scale(2 2)" d="M246.026 100.753C247.162 101.281 248.664 102.031 249.795 102.49L247.848 104.044C245.912 103.692 243.708 103.022 241.788 102.49C243.28 102.356 245.142 102.068 246.026 100.753Z"/><path fill="#F6D4BA" transform="scale(2 2)" d="M161.834 134.177C156.121 129.203 160.344 127.542 165.429 124.65C170.212 121.93 179.974 113.846 180.486 124.088C179.343 125.399 163.97 133.734 161.834 134.177Z"/><path fill="#F6D4BA" transform="scale(2 2)" d="M206.146 155.109C202.144 155.21 199.215 151.076 201.851 148.737C204.572 146.324 221.967 135.884 222.085 146.232C220.467 148.458 210.15 152 206.146 155.109Z"/><path fill="#F6D4BA" transform="scale(2 2)" d="M149.376 152.664C148.399 152.996 145.762 153.997 144.834 153.39C136.812 148.145 151.097 143.434 155.381 141.893C160.156 140.175 160.849 141.678 161.834 146.232C160.435 148.545 152.324 151.404 149.376 152.664Z"/><path fill="#FEFADC" transform="scale(2 2)" d="M293.018 101.757C296.878 102.551 301.601 104.962 304.357 107.757C301.322 109.569 297.327 111.847 294.497 113.863C292.22 118.711 282.854 120.138 277.696 121.991C278.093 123.481 279.795 124.982 280.904 126.06C284.23 125.711 284.742 125.486 287.767 124.088C278.724 139.688 278.238 147.615 278.413 164.801C266.183 160.961 257.352 161.078 244.86 163.989C234.535 135.265 251.247 106.987 281.106 101.96C284.15 101.448 291.16 102.37 293.018 101.757Z"/><path fill="#F6D4BA" transform="scale(2 2)" d="M277.696 121.991C269.294 114.016 286.365 110.546 292.081 110.397C293.848 111.615 294.01 111.786 294.497 113.863C292.22 118.711 282.854 120.138 277.696 121.991Z"/><path fill="#F6D4BA" transform="scale(2 2)" d="M253.234 137.086C258.247 138.606 271.58 140.909 269.586 147.239C271.681 148.325 271.951 148.756 272.775 150.913C269.029 159.994 256.359 147.752 255.987 146.232C252.42 144.172 244.436 140.241 253.234 137.086Z"/><path fill="#FEFADC" transform="scale(2 2)" d="M255.987 146.232C260.198 147.222 266.563 150.822 269.586 147.239C271.681 148.325 271.951 148.756 272.775 150.913C269.029 159.994 256.359 147.752 255.987 146.232Z"/></svg>